<?xml version="1.0" encoding="UTF-8"?>
<svg xmlns="http://www.w3.org/2000/svg" xmlns:xlink="http://www.w3.org/1999/xlink" width="1050pt" height="675.12pt" viewBox="0 0 1050 675.12">
<defs>
<g>
<g id="glyph-0-0">
<path d="M 12.238281 -19.746094 L 12.238281 -21.878906 L 37.394531 -21.878906 L 37.394531 -19.746094 Z M 47.570312 -2.5625 L 53.117188 -1.03125 L 53.117188 0 L 33.371094 0 L 33.371094 -1.03125 L 39.847656 -2.492188 L 22.058594 -42.765625 L 22.949219 -42.765625 L 7.117188 -2.738281 L 13.875 -1.03125 L 13.875 0 L -0.675781 0 L -0.675781 -1.03125 L 4.765625 -2.847656 L 24.265625 -51.589844 L 25.617188 -51.589844 Z M 47.570312 -2.5625 "/>
</g>
<g id="glyph-0-1">
<path d="M 9 -2.527344 L 9 -47.816406 L 1.921875 -49.84375 L 1.921875 -50.878906 L 16.367188 -50.878906 L 46.574219 -9.820312 L 44.6875 -2.492188 L 44.6875 -48.351562 L 37.605469 -49.84375 L 37.605469 -50.878906 L 53.402344 -50.878906 L 53.402344 -49.84375 L 47.035156 -48.351562 L 47.035156 0.710938 L 45.683594 0.710938 L 10.351562 -47.035156 L 11.347656 -48.386719 L 11.347656 -2.527344 L 18.429688 -1.03125 L 18.429688 0 L 2.632812 0 L 2.632812 -1.03125 Z M 9 -2.527344 "/>
</g>
<g id="glyph-0-2">
<path d="M 44.082031 -25.867188 C 44.082031 -33.503906 42.101562 -39.226562 38.140625 -43.03125 C 34.179688 -46.839844 28.367188 -48.742188 20.707031 -48.742188 L 11.917969 -48.742188 L 11.917969 -50.878906 L 22.734375 -50.878906 C 28.878906 -50.878906 34.101562 -49.929688 38.40625 -48.03125 C 42.710938 -46.132812 45.996094 -43.375 48.261719 -39.757812 C 50.527344 -36.140625 51.660156 -31.761719 51.660156 -26.613281 C 51.660156 -20.753906 50.414062 -15.851562 47.925781 -11.902344 C 45.433594 -7.953125 42.046875 -4.980469 37.765625 -2.988281 C 33.484375 -0.996094 28.640625 0 23.234375 0 L 11.917969 0 L 11.917969 -2.132812 L 21.988281 -2.132812 C 26.636719 -2.132812 30.609375 -2.929688 33.90625 -4.519531 C 37.203125 -6.109375 39.722656 -8.644531 41.46875 -12.132812 C 43.210938 -15.617188 44.082031 -20.195312 44.082031 -25.867188 Z M 2.417969 0 L 2.417969 -1.03125 L 8.789062 -2.527344 L 8.789062 -48.386719 L 2.417969 -49.84375 L 2.417969 -50.878906 L 16.117188 -50.878906 L 16.117188 0 Z M 2.417969 0 "/>
</g>
<g id="glyph-0-3">
<path d="M 22.273438 -27.324219 C 25.878906 -27.324219 28.707031 -28.265625 30.757812 -30.152344 C 32.808594 -32.039062 33.835938 -34.808594 33.835938 -38.460938 C 33.835938 -40.644531 33.382812 -42.523438 32.484375 -44.101562 C 31.582031 -45.675781 30.113281 -46.894531 28.070312 -47.746094 C 26.03125 -48.601562 23.304688 -49.027344 19.886719 -49.027344 L 10.496094 -49.027344 L 10.496094 -50.878906 L 22.34375 -50.878906 C 27.085938 -50.878906 30.839844 -50.34375 33.605469 -49.277344 C 36.367188 -48.210938 38.34375 -46.75 39.527344 -44.898438 C 40.714844 -43.050781 41.308594 -40.925781 41.308594 -38.53125 C 41.308594 -36.445312 40.726562 -34.5 39.5625 -32.695312 C 38.402344 -30.894531 36.667969 -29.410156 34.367188 -28.25 C 32.066406 -27.085938 29.210938 -26.410156 25.792969 -26.222656 L 25.792969 -26.328125 C 27.976562 -26.304688 29.753906 -26.054688 31.132812 -25.582031 C 32.507812 -25.105469 33.664062 -24.355469 34.601562 -23.320312 C 35.539062 -22.289062 36.433594 -20.898438 37.285156 -19.140625 L 42.871094 -7.757812 C 43.867188 -5.738281 44.726562 -4.269531 45.453125 -3.34375 C 46.175781 -2.417969 46.957031 -1.839844 47.800781 -1.601562 C 48.640625 -1.363281 49.726562 -1.246094 51.054688 -1.246094 L 51.054688 0 C 48.589844 0.191406 46.542969 0.273438 44.917969 0.25 C 43.292969 0.226562 41.945312 0.0117188 40.878906 -0.390625 C 39.8125 -0.792969 38.898438 -1.445312 38.140625 -2.347656 C 37.382812 -3.25 36.621094 -4.460938 35.863281 -5.976562 L 29.53125 -18.929688 C 28.675781 -20.707031 27.90625 -22.066406 27.21875 -23 C 26.53125 -23.9375 25.816406 -24.585938 25.082031 -24.941406 C 24.347656 -25.296875 23.445312 -25.472656 22.378906 -25.472656 L 10.496094 -25.472656 L 10.496094 -27.324219 Z M 16.117188 -50.878906 L 16.117188 -2.527344 L 22.484375 -1.03125 L 22.484375 0 L 2.417969 0 L 2.417969 -1.03125 L 8.789062 -2.527344 L 8.789062 -48.386719 L 2.417969 -49.84375 L 2.417969 -50.878906 Z M 16.117188 -50.878906 "/>
</g>
<g id="glyph-0-4">
<path d="M 32.945312 -36.964844 L 31.734375 -26.542969 L 32.945312 -16.1875 L 32.164062 -16.1875 L 28.214844 -25.296875 L 11.171875 -26.148438 L 11.171875 -26.96875 L 28.214844 -27.964844 L 32.164062 -36.964844 Z M 43.976562 -36.859375 L 43.085938 -36.574219 L 35.933594 -49.597656 L 41.378906 -48.742188 L 10.957031 -48.742188 L 10.957031 -50.878906 L 36.574219 -50.878906 L 41.308594 -52.796875 L 41.589844 -52.796875 Z M 36.574219 -1.246094 L 45.078125 -14.300781 L 45.96875 -14.054688 L 42.195312 1.921875 L 41.910156 1.921875 L 37.359375 0 L 10.957031 0 L 10.957031 -2.132812 L 42.054688 -2.132812 Z M 2.417969 0 L 2.417969 -1.03125 L 8.789062 -2.527344 L 8.789062 -48.386719 L 2.417969 -49.84375 L 2.417969 -50.878906 L 16.117188 -50.878906 L 16.117188 0 Z M 2.417969 0 "/>
</g>
<g id="glyph-0-5">
</g>
<g id="glyph-0-6">
<path d="M 32.695312 -48.492188 L 28.179688 -49.527344 L 31.949219 -52.796875 L 32.554688 -52.796875 L 34.652344 -36.363281 L 33.800781 -36.21875 L 27.394531 -47.78125 L 29.316406 -45.328125 C 27.871094 -46.609375 26.210938 -47.667969 24.335938 -48.511719 C 22.460938 -49.351562 20.492188 -49.773438 18.429688 -49.773438 C 15.324219 -49.773438 13.035156 -49.035156 11.5625 -47.550781 C 10.09375 -46.070312 9.355469 -44.105469 9.355469 -41.664062 C 9.355469 -40.003906 9.714844 -38.609375 10.425781 -37.480469 C 11.136719 -36.355469 12.101562 -35.414062 13.324219 -34.652344 C 14.546875 -33.894531 15.933594 -33.230469 17.488281 -32.660156 C 19.039062 -32.09375 20.660156 -31.511719 22.34375 -30.917969 C 24.027344 -30.324219 25.699219 -29.648438 27.359375 -28.890625 C 29.019531 -28.128906 30.53125 -27.171875 31.894531 -26.007812 C 33.261719 -24.847656 34.351562 -23.386719 35.167969 -21.632812 C 35.988281 -19.875 36.398438 -17.695312 36.398438 -15.085938 C 36.398438 -11.976562 35.574219 -9.234375 33.925781 -6.847656 C 32.277344 -4.464844 30.074219 -2.601562 27.324219 -1.261719 C 24.574219 0.078125 21.523438 0.746094 18.179688 0.746094 C 15.761719 0.746094 13.613281 0.574219 11.742188 0.230469 C 9.867188 -0.113281 7.933594 -0.699219 5.941406 -1.53125 L 2.882812 -15.050781 L 3.914062 -15.050781 L 12.949219 -0.710938 L 7.507812 -4.410156 C 9.476562 -3.25 11.25 -2.34375 12.824219 -1.691406 C 14.402344 -1.039062 16.082031 -0.710938 17.859375 -0.710938 C 20.683594 -0.710938 23.097656 -1.148438 25.101562 -2.027344 C 27.105469 -2.90625 28.640625 -4.175781 29.707031 -5.835938 C 30.777344 -7.496094 31.308594 -9.511719 31.308594 -11.882812 C 31.308594 -13.996094 30.875 -15.742188 30.011719 -17.132812 C 29.144531 -18.519531 28.007812 -19.667969 26.59375 -20.582031 C 25.183594 -21.496094 23.636719 -22.277344 21.953125 -22.929688 C 20.269531 -23.582031 18.597656 -24.230469 16.933594 -24.871094 C 15.273438 -25.511719 13.710938 -26.1875 12.238281 -26.898438 C 10.769531 -27.609375 9.464844 -28.449219 8.324219 -29.421875 C 7.1875 -30.394531 6.292969 -31.570312 5.640625 -32.945312 C 4.988281 -34.320312 4.660156 -35.980469 4.660156 -37.925781 C 4.660156 -40.75 5.320312 -43.179688 6.636719 -45.21875 C 7.953125 -47.261719 9.8125 -48.835938 12.222656 -49.953125 C 14.628906 -51.066406 17.46875 -51.625 20.742188 -51.625 C 22.996094 -51.625 25.066406 -51.375 26.949219 -50.878906 C 28.835938 -50.378906 30.75 -49.585938 32.695312 -48.492188 Z M 32.695312 -48.492188 "/>
</g>
<g id="glyph-0-7">
<path d="M 22.484375 -1.03125 L 22.484375 0 L 2.417969 0 L 2.417969 -1.03125 L 8.789062 -2.527344 L 8.789062 -48.386719 L 2.417969 -49.84375 L 2.417969 -50.878906 L 22.484375 -50.878906 L 22.484375 -49.84375 L 16.117188 -48.386719 L 16.117188 -2.527344 Z M 22.484375 -1.03125 "/>
</g>
<g id="glyph-0-8">
<path d="M 39.351562 1.921875 L 39.066406 1.921875 L 34.511719 0 L 10.957031 0 L 10.957031 -2.132812 L 39.207031 -2.132812 L 33.730469 -1.246094 L 42.230469 -14.300781 L 43.121094 -14.054688 Z M 16.117188 -48.386719 L 16.117188 0 L 2.417969 0 L 2.417969 -1.03125 L 8.789062 -2.527344 L 8.789062 -48.386719 L 2.417969 -49.84375 L 2.417969 -50.878906 L 22.484375 -50.878906 L 22.484375 -49.84375 Z M 16.117188 -48.386719 "/>
</g>
<g id="glyph-0-9">
<path d="M 4.019531 -48.316406 L -1.53125 -49.84375 L -1.53125 -50.878906 L 18.214844 -50.878906 L 18.214844 -49.84375 L 11.742188 -48.386719 L 29.316406 -8.113281 L 28.425781 -8.113281 L 43.050781 -48.136719 L 36.289062 -49.84375 L 36.289062 -50.878906 L 50.84375 -50.878906 L 50.84375 -49.84375 L 45.398438 -48.03125 L 27.109375 0.710938 L 25.757812 0.710938 Z M 4.019531 -48.316406 "/>
</g>
<g id="glyph-1-0">
<path d="M 8.984375 0.203125 C 7.367188 0.203125 5.988281 -0.125 4.84375 -0.78125 C 3.707031 -1.445312 2.835938 -2.390625 2.234375 -3.609375 C 1.628906 -4.828125 1.328125 -6.269531 1.328125 -7.9375 C 1.328125 -9.59375 1.628906 -11.023438 2.234375 -12.234375 C 2.835938 -13.453125 3.707031 -14.390625 4.84375 -15.046875 C 5.988281 -15.710938 7.367188 -16.046875 8.984375 -16.046875 C 10.109375 -16.046875 11.113281 -15.878906 12 -15.546875 C 12.882812 -15.210938 13.65625 -14.734375 14.3125 -14.109375 L 13.5 -12.25 C 12.78125 -12.863281 12.078125 -13.300781 11.390625 -13.5625 C 10.710938 -13.832031 9.925781 -13.96875 9.03125 -13.96875 C 7.320312 -13.96875 6.019531 -13.441406 5.125 -12.390625 C 4.226562 -11.347656 3.78125 -9.863281 3.78125 -7.9375 C 3.78125 -6 4.226562 -4.5 5.125 -3.4375 C 6.019531 -2.382812 7.320312 -1.859375 9.03125 -1.859375 C 9.925781 -1.859375 10.710938 -1.992188 11.390625 -2.265625 C 12.078125 -2.535156 12.78125 -2.988281 13.5 -3.625 L 14.3125 -1.75 C 13.65625 -1.125 12.882812 -0.640625 12 -0.296875 C 11.113281 0.0351562 10.109375 0.203125 8.984375 0.203125 Z M 8.984375 0.203125 "/>
</g>
<g id="glyph-1-1">
<path d="M 1.328125 -7.9375 C 1.328125 -9.59375 1.617188 -11.023438 2.203125 -12.234375 C 2.785156 -13.453125 3.632812 -14.390625 4.75 -15.046875 C 5.863281 -15.710938 7.191406 -16.046875 8.734375 -16.046875 C 10.265625 -16.046875 11.582031 -15.710938 12.6875 -15.046875 C 13.800781 -14.390625 14.660156 -13.453125 15.265625 -12.234375 C 15.867188 -11.023438 16.171875 -9.597656 16.171875 -7.953125 C 16.171875 -6.285156 15.867188 -4.84375 15.265625 -3.625 C 14.660156 -2.40625 13.800781 -1.460938 12.6875 -0.796875 C 11.570312 -0.128906 10.253906 0.203125 8.734375 0.203125 C 7.191406 0.203125 5.863281 -0.128906 4.75 -0.796875 C 3.644531 -1.460938 2.796875 -2.40625 2.203125 -3.625 C 1.617188 -4.84375 1.328125 -6.28125 1.328125 -7.9375 Z M 3.78125 -7.9375 C 3.78125 -6.019531 4.195312 -4.519531 5.03125 -3.4375 C 5.875 -2.351562 7.109375 -1.8125 8.734375 -1.8125 C 10.328125 -1.8125 11.554688 -2.347656 12.421875 -3.421875 C 13.296875 -4.492188 13.734375 -6 13.734375 -7.9375 C 13.734375 -9.863281 13.300781 -11.359375 12.4375 -12.421875 C 11.570312 -13.484375 10.335938 -14.015625 8.734375 -14.015625 C 7.109375 -14.015625 5.875 -13.484375 5.03125 -12.421875 C 4.195312 -11.359375 3.78125 -9.863281 3.78125 -7.9375 Z M 3.78125 -7.9375 "/>
</g>
<g id="glyph-1-2">
<path d="M 0.21875 0 L 7.28125 -15.84375 L 9.28125 -15.84375 L 16.453125 0 L 14.046875 0 L 12.09375 -4.5 L 13.078125 -3.859375 L 3.484375 -3.859375 L 4.53125 -4.5 L 2.578125 0 Z M 8.25 -13.28125 L 4.828125 -5.21875 L 4.296875 -5.734375 L 12.265625 -5.734375 L 11.8125 -5.21875 L 8.328125 -13.28125 Z M 8.25 -13.28125 "/>
</g>
<g id="glyph-1-3">
<path d="M 1.859375 0 L 1.859375 -15.84375 L 4.203125 -15.84375 L 4.203125 -9.015625 L 13.09375 -9.015625 L 13.09375 -15.84375 L 15.4375 -15.84375 L 15.4375 0 L 13.09375 0 L 13.09375 -7.0625 L 4.203125 -7.0625 L 4.203125 0 Z M 1.859375 0 "/>
</g>
<g id="glyph-1-4">
<path d="M 1.859375 0 L 1.859375 -15.84375 L 4.203125 -15.84375 L 4.203125 0 Z M 1.859375 0 "/>
</g>
<g id="glyph-1-5">
<path d="M 1.859375 0 L 1.859375 -15.84375 L 3.65625 -15.84375 L 13.390625 -3.078125 L 12.828125 -3.078125 L 12.828125 -15.84375 L 15.015625 -15.84375 L 15.015625 0 L 13.234375 0 L 3.53125 -12.765625 L 4.046875 -12.765625 L 4.046875 0 Z M 1.859375 0 "/>
</g>
<g id="glyph-1-6">
<path d="M 9.328125 0.203125 C 7.578125 0.203125 6.101562 -0.117188 4.90625 -0.765625 C 3.71875 -1.421875 2.820312 -2.351562 2.21875 -3.5625 C 1.625 -4.78125 1.328125 -6.226562 1.328125 -7.90625 C 1.328125 -9.582031 1.644531 -11.023438 2.28125 -12.234375 C 2.914062 -13.453125 3.828125 -14.390625 5.015625 -15.046875 C 6.210938 -15.710938 7.648438 -16.046875 9.328125 -16.046875 C 10.472656 -16.046875 11.472656 -15.882812 12.328125 -15.5625 C 13.179688 -15.238281 13.945312 -14.769531 14.625 -14.15625 L 13.796875 -12.328125 C 13.316406 -12.734375 12.851562 -13.054688 12.40625 -13.296875 C 11.957031 -13.535156 11.492188 -13.710938 11.015625 -13.828125 C 10.535156 -13.941406 9.972656 -14 9.328125 -14 C 7.515625 -14 6.132812 -13.46875 5.1875 -12.40625 C 4.25 -11.34375 3.78125 -9.835938 3.78125 -7.890625 C 3.78125 -5.910156 4.234375 -4.398438 5.140625 -3.359375 C 6.046875 -2.328125 7.472656 -1.8125 9.421875 -1.8125 C 10.085938 -1.8125 10.75 -1.875 11.40625 -2 C 12.070312 -2.132812 12.710938 -2.328125 13.328125 -2.578125 L 12.875 -1.484375 L 12.875 -6.671875 L 8.96875 -6.671875 L 8.96875 -8.421875 L 14.828125 -8.421875 L 14.828125 -0.9375 C 14.140625 -0.59375 13.296875 -0.316406 12.296875 -0.109375 C 11.304688 0.0976562 10.316406 0.203125 9.328125 0.203125 Z M 9.328125 0.203125 "/>
</g>
<g id="glyph-1-7">
</g>
<g id="glyph-1-8">
<path d="M 14.71875 0.203125 C 14.03125 -0.0664062 13.378906 -0.414062 12.765625 -0.84375 C 12.148438 -1.28125 11.609375 -1.722656 11.140625 -2.171875 L 11.65625 -2.15625 C 11 -1.425781 10.210938 -0.847656 9.296875 -0.421875 C 8.390625 -0.00390625 7.410156 0.203125 6.359375 0.203125 C 5.234375 0.203125 4.269531 0.0273438 3.46875 -0.3125 C 2.664062 -0.65625 2.050781 -1.132812 1.625 -1.75 C 1.195312 -2.363281 0.984375 -3.082031 0.984375 -3.90625 C 0.984375 -4.9375 1.28125 -5.8125 1.875 -6.53125 C 2.476562 -7.25 3.320312 -7.945312 4.40625 -8.625 L 5.140625 -9.078125 L 4.8125 -8.65625 C 4.132812 -9.351562 3.640625 -10 3.328125 -10.59375 C 3.015625 -11.1875 2.859375 -11.804688 2.859375 -12.453125 C 2.859375 -13.171875 3.03125 -13.796875 3.375 -14.328125 C 3.71875 -14.867188 4.195312 -15.289062 4.8125 -15.59375 C 5.4375 -15.894531 6.175781 -16.046875 7.03125 -16.046875 C 8.125 -16.046875 9.019531 -15.75 9.71875 -15.15625 C 10.414062 -14.5625 10.765625 -13.75 10.765625 -12.71875 C 10.765625 -12.175781 10.65625 -11.660156 10.4375 -11.171875 C 10.21875 -10.691406 9.859375 -10.222656 9.359375 -9.765625 C 8.859375 -9.316406 8.179688 -8.847656 7.328125 -8.359375 L 7.390625 -8.828125 L 11.546875 -4.40625 L 11.078125 -4.40625 C 11.460938 -5.03125 11.757812 -5.773438 11.96875 -6.640625 C 12.1875 -7.503906 12.316406 -8.421875 12.359375 -9.390625 L 14.296875 -9.390625 C 14.265625 -8.148438 14.082031 -6.984375 13.75 -5.890625 C 13.414062 -4.804688 12.972656 -3.851562 12.421875 -3.03125 L 12.40625 -3.640625 C 12.789062 -3.222656 13.253906 -2.816406 13.796875 -2.421875 C 14.335938 -2.035156 14.921875 -1.707031 15.546875 -1.4375 Z M 6.453125 -1.59375 C 7.285156 -1.59375 8.023438 -1.753906 8.671875 -2.078125 C 9.328125 -2.398438 9.894531 -2.875 10.375 -3.5 L 10.328125 -2.921875 L 5.53125 -7.9375 L 6.421875 -7.90625 L 5.75 -7.5 C 5.175781 -7.144531 4.703125 -6.789062 4.328125 -6.4375 C 3.960938 -6.082031 3.6875 -5.71875 3.5 -5.34375 C 3.320312 -4.96875 3.234375 -4.535156 3.234375 -4.046875 C 3.234375 -3.285156 3.503906 -2.6875 4.046875 -2.25 C 4.597656 -1.8125 5.398438 -1.59375 6.453125 -1.59375 Z M 7.03125 -14.453125 C 6.40625 -14.453125 5.898438 -14.269531 5.515625 -13.90625 C 5.128906 -13.550781 4.9375 -13.070312 4.9375 -12.46875 C 4.9375 -12.164062 4.988281 -11.878906 5.09375 -11.609375 C 5.195312 -11.347656 5.375 -11.054688 5.625 -10.734375 C 5.882812 -10.410156 6.234375 -10.015625 6.671875 -9.546875 L 6.09375 -9.5 C 7.082031 -10.070312 7.800781 -10.585938 8.25 -11.046875 C 8.695312 -11.515625 8.921875 -12.039062 8.921875 -12.625 C 8.921875 -13.175781 8.75 -13.617188 8.40625 -13.953125 C 8.0625 -14.285156 7.601562 -14.453125 7.03125 -14.453125 Z M 7.03125 -14.453125 "/>
</g>
<g id="glyph-1-9">
<path d="M 7.21875 0.203125 C 5.9375 0.203125 4.78125 0.0390625 3.75 -0.28125 C 2.71875 -0.601562 1.820312 -1.0625 1.0625 -1.65625 L 1.84375 -3.5 C 2.351562 -3.113281 2.878906 -2.789062 3.421875 -2.53125 C 3.972656 -2.28125 4.554688 -2.09375 5.171875 -1.96875 C 5.796875 -1.84375 6.476562 -1.78125 7.21875 -1.78125 C 8.46875 -1.78125 9.390625 -2.003906 9.984375 -2.453125 C 10.578125 -2.898438 10.875 -3.488281 10.875 -4.21875 C 10.875 -4.851562 10.664062 -5.34375 10.25 -5.6875 C 9.84375 -6.03125 9.125 -6.304688 8.09375 -6.515625 L 5.640625 -7.015625 C 4.179688 -7.304688 3.097656 -7.789062 2.390625 -8.46875 C 1.679688 -9.15625 1.328125 -10.09375 1.328125 -11.28125 C 1.328125 -12.238281 1.582031 -13.078125 2.09375 -13.796875 C 2.601562 -14.515625 3.3125 -15.066406 4.21875 -15.453125 C 5.125 -15.847656 6.179688 -16.046875 7.390625 -16.046875 C 8.515625 -16.046875 9.546875 -15.882812 10.484375 -15.5625 C 11.429688 -15.238281 12.226562 -14.765625 12.875 -14.140625 L 12.109375 -12.359375 C 11.429688 -12.941406 10.710938 -13.367188 9.953125 -13.640625 C 9.191406 -13.921875 8.320312 -14.0625 7.34375 -14.0625 C 6.195312 -14.0625 5.296875 -13.820312 4.640625 -13.34375 C 3.984375 -12.863281 3.65625 -12.210938 3.65625 -11.390625 C 3.65625 -10.734375 3.859375 -10.21875 4.265625 -9.84375 C 4.679688 -9.46875 5.375 -9.179688 6.34375 -8.984375 L 8.78125 -8.515625 C 10.289062 -8.203125 11.40625 -7.71875 12.125 -7.0625 C 12.851562 -6.414062 13.21875 -5.519531 13.21875 -4.375 C 13.21875 -3.46875 12.972656 -2.664062 12.484375 -1.96875 C 11.992188 -1.28125 11.300781 -0.742188 10.40625 -0.359375 C 9.507812 0.0117188 8.445312 0.203125 7.21875 0.203125 Z M 7.21875 0.203125 "/>
</g>
<g id="glyph-1-10">
<path d="M 8.296875 0.203125 C 6.085938 0.203125 4.445312 -0.347656 3.375 -1.453125 C 2.3125 -2.566406 1.78125 -4.207031 1.78125 -6.375 L 1.78125 -15.84375 L 4.109375 -15.84375 L 4.109375 -6.421875 C 4.109375 -4.898438 4.441406 -3.75 5.109375 -2.96875 C 5.773438 -2.195312 6.835938 -1.8125 8.296875 -1.8125 C 9.671875 -1.8125 10.707031 -2.195312 11.40625 -2.96875 C 12.113281 -3.75 12.46875 -4.898438 12.46875 -6.421875 L 12.46875 -15.84375 L 14.765625 -15.84375 L 14.765625 -6.375 C 14.765625 -4.207031 14.21875 -2.566406 13.125 -1.453125 C 12.03125 -0.347656 10.421875 0.203125 8.296875 0.203125 Z M 8.296875 0.203125 "/>
</g>
<g id="glyph-1-11">
<path d="M 1.859375 0 L 1.859375 -15.84375 L 4.203125 -15.84375 L 4.203125 -2 L 11.96875 -2 L 11.96875 0 Z M 1.859375 0 "/>
</g>
<g id="glyph-1-12">
<path d="M 5.65625 0 L 5.65625 -13.890625 L 0.25 -13.890625 L 0.25 -15.84375 L 13.40625 -15.84375 L 13.40625 -13.890625 L 8 -13.890625 L 8 0 Z M 5.65625 0 "/>
</g>
</g>
</defs>
<path fill-rule="nonzero" fill="rgb(10.198975%, 14.118958%, 18.818665%)" fill-opacity="1" d="M 517.777344 135.050781 C 514.273438 135.367188 508.515625 136.703125 503.933594 138.234375 C 498.265625 140.078125 486.652344 146.636719 482.769531 150.136719 C 480.636719 152.078125 474.75 158.191406 473.285156 159.972656 C 469.816406 164.304688 466.03125 170.605469 464.277344 174.96875 C 462.496094 179.425781 460.808594 185.027344 460.332031 188.113281 C 460.140625 189.324219 459.917969 190.4375 459.855469 190.535156 C 459.539062 191.042969 459.316406 194.195312 459.15625 199.925781 C 458.996094 206.671875 459.441406 211.097656 460.84375 216.574219 C 461.636719 219.660156 464.597656 228.289062 465.105469 228.894531 C 465.234375 229.050781 465.457031 229.53125 465.585938 229.941406 C 466.1875 231.949219 470.484375 238.507812 474.050781 242.898438 C 476.277344 245.605469 480.636719 249.871094 484.042969 252.671875 C 492.953125 259.960938 505.078125 265.117188 516.980469 266.648438 C 520.066406 267.027344 529.804688 267.027344 531.332031 266.613281 C 532.03125 266.421875 532.859375 266.328125 533.113281 266.421875 C 534.261719 266.871094 543.488281 264.703125 548.136719 262.890625 C 557.554688 259.230469 564.207031 254.933594 571.304688 247.929688 C 577.160156 242.136719 580.820312 237.234375 583.746094 231.214844 C 587.949219 222.652344 589.539062 217.242188 590.683594 207.40625 C 591.800781 197.949219 590.398438 187.289062 586.835938 177.640625 C 585.464844 173.949219 585.402344 173.820312 584.003906 171.050781 C 579.515625 162.203125 571.496094 153.066406 562.296875 146.285156 C 560.835938 145.203125 557.300781 143.101562 555.964844 142.5 C 555.613281 142.339844 554.40625 141.765625 553.261719 141.226562 C 552.113281 140.652344 550.269531 139.855469 549.121094 139.410156 C 547.976562 138.964844 546.546875 138.390625 545.941406 138.136719 C 543.933594 137.308594 540.148438 136.417969 535.121094 135.621094 C 531.140625 134.984375 529.105469 134.859375 524.617188 134.890625 C 521.5625 134.921875 518.476562 134.984375 517.777344 135.050781 Z M 530.949219 139.347656 C 531.398438 139.507812 533.019531 139.792969 534.546875 139.953125 C 539.382812 140.429688 545.273438 142.148438 550.875 144.695312 C 551.574219 144.980469 552.367188 145.332031 552.625 145.457031 C 552.878906 145.585938 553.640625 145.96875 554.277344 146.382812 C 554.945312 146.765625 556.285156 147.558594 557.300781 148.164062 C 560.675781 150.136719 566.433594 154.722656 569.011719 157.460938 C 574.296875 163.125 577.351562 167.582031 580.851562 174.777344 C 581.457031 175.988281 582.09375 177.257812 582.25 177.578125 C 582.410156 177.894531 583.144531 179.902344 583.84375 182.035156 C 585.878906 188.273438 586.644531 193.207031 586.644531 200.71875 C 586.644531 211.160156 584.863281 219.183594 580.597656 227.777344 C 576.238281 236.597656 570.828125 243.375 563.667969 249.011719 C 557.300781 254.039062 552.113281 256.90625 545.464844 259.132812 C 537.570312 261.746094 532.890625 262.605469 525.890625 262.605469 C 515.039062 262.667969 506.734375 260.820312 497.726562 256.429688 C 493.015625 254.136719 490.820312 252.703125 486.078125 248.914062 C 480.859375 244.746094 476.59375 239.875 473 234.050781 C 466.984375 224.308594 464.34375 216.128906 463.453125 204.699219 C 463.039062 199.449219 463.769531 190.882812 464.914062 187.03125 C 465.171875 186.238281 465.457031 185.089844 465.585938 184.484375 C 465.808594 183.371094 467.113281 179.167969 467.621094 177.960938 C 468.097656 176.847656 471.152344 170.671875 471.726562 169.683594 C 474.875 164.175781 480.191406 157.875 485.539062 153.417969 C 490.089844 149.628906 497.980469 144.726562 501.164062 143.773438 C 501.738281 143.582031 503.199219 143.101562 504.410156 142.625 C 508.515625 141.128906 513.257812 140.078125 519.367188 139.28125 C 522.136719 138.933594 529.996094 138.964844 530.949219 139.347656 Z M 530.949219 139.347656 "/>
<path fill-rule="nonzero" fill="rgb(10.198975%, 14.118958%, 18.818665%)" fill-opacity="1" d="M 482.578125 278.582031 C 482.546875 278.648438 468.257812 278.773438 450.847656 278.871094 C 433.441406 278.996094 413.519531 279.21875 406.613281 279.378906 C 384.242188 279.855469 351.046875 280.398438 339.78125 280.492188 C 321.070312 280.621094 305.570312 280.90625 305 281.128906 C 304.203125 281.417969 304.332031 282.179688 305.253906 282.53125 C 306.875 283.167969 320.019531 283.453125 351.238281 283.644531 C 368.839844 283.742188 392.039062 283.964844 402.792969 284.121094 C 424.179688 284.472656 597.433594 284.441406 617.609375 284.089844 C 624.355469 283.964844 639.472656 283.773438 651.183594 283.675781 C 662.925781 283.550781 675.242188 283.390625 678.550781 283.328125 C 687.464844 283.105469 729.597656 282.5625 737.871094 282.5625 C 742.773438 282.5625 745.128906 282.4375 745.414062 282.179688 C 746.304688 281.449219 745.222656 281.035156 741.46875 280.652344 C 737.777344 280.238281 733.800781 280.175781 696.246094 279.761719 C 662.355469 279.378906 658.027344 279.347656 648.957031 279.21875 C 614.457031 278.742188 482.929688 278.265625 482.578125 278.582031 Z M 482.578125 278.582031 "/>
<path fill-rule="nonzero" fill="rgb(10.198975%, 14.118958%, 18.818665%)" fill-opacity="1" d="M 586.484375 296.792969 C 579.769531 297.015625 567.898438 297.875 565.003906 298.320312 C 559.402344 299.148438 559.433594 299.148438 559.433594 300.039062 C 559.433594 300.644531 559.65625 300.867188 560.386719 301.027344 C 562.171875 301.472656 568.980469 302.011719 569.839844 301.789062 C 570.347656 301.664062 571.050781 301.789062 571.6875 302.109375 C 572.609375 302.585938 575.25 302.648438 600.613281 302.679688 C 622.382812 302.746094 629.191406 302.648438 631.675781 302.332031 C 633.425781 302.078125 636.640625 301.726562 638.804688 301.535156 C 641.921875 301.21875 642.8125 301.027344 643.101562 300.613281 C 643.863281 299.402344 642.878906 299.117188 636.449219 298.765625 C 633.105469 298.574219 629.894531 298.257812 629.289062 298.035156 C 628.269531 297.714844 624.132812 297.589844 601.761719 297.078125 C 597.75 296.984375 593.167969 296.855469 591.578125 296.792969 C 590.015625 296.730469 587.726562 296.730469 586.484375 296.792969 Z M 586.484375 296.792969 "/>
<path fill-rule="nonzero" fill="rgb(10.198975%, 14.118958%, 18.818665%)" fill-opacity="1" d="M 489.421875 297.015625 C 489.261719 297.078125 486.015625 297.300781 482.261719 297.492188 C 478.503906 297.683594 474.335938 298.066406 473.03125 298.289062 C 471.726562 298.511719 469.816406 298.796875 468.796875 298.925781 C 466.570312 299.179688 465.488281 300.007812 466.03125 300.996094 C 466.316406 301.535156 466.699219 301.632812 468.574219 301.632812 C 469.785156 301.632812 471.152344 301.789062 471.664062 302.011719 C 473.253906 302.648438 479.777344 302.871094 504.886719 303.09375 C 530.824219 303.316406 545.015625 303 549.027344 302.078125 C 550.140625 301.820312 551.957031 301.632812 553.070312 301.632812 C 554.46875 301.632812 555.234375 301.472656 555.582031 301.121094 C 556.1875 300.515625 556.21875 300.324219 555.710938 299.625 C 555.359375 299.179688 554.375 299.019531 550.046875 298.765625 C 547.148438 298.574219 544 298.449219 543.042969 298.480469 C 541.898438 298.511719 540.914062 298.351562 540.210938 298.003906 C 539.320312 297.523438 538.269531 297.460938 532.605469 297.523438 C 528.976562 297.554688 525.605469 297.554688 525.0625 297.523438 C 521.148438 297.238281 490.023438 296.792969 489.421875 297.015625 Z M 489.421875 297.015625 "/>
<path fill-rule="nonzero" fill="rgb(10.198975%, 14.118958%, 18.818665%)" fill-opacity="1" d="M 428.796875 297.492188 C 422.015625 297.8125 410.75 298.734375 409.828125 299.085938 C 408.90625 299.433594 408.746094 300.867188 409.636719 301.121094 C 409.921875 301.183594 412.820312 301.375 416.066406 301.503906 C 419.3125 301.597656 422.238281 301.855469 422.589844 302.042969 C 422.941406 302.234375 426.566406 302.457031 431.023438 302.554688 C 445.789062 302.839844 454.953125 302.648438 456.578125 302.011719 C 457.085938 301.789062 458.679688 301.535156 460.175781 301.441406 C 463.101562 301.183594 463.867188 300.707031 463.039062 299.5625 C 462.71875 299.117188 461.957031 298.957031 459.15625 298.765625 C 457.246094 298.640625 455.273438 298.382812 454.730469 298.191406 C 453.808594 297.84375 438.597656 297.109375 435.160156 297.238281 C 434.207031 297.269531 431.339844 297.398438 428.796875 297.492188 Z M 428.796875 297.492188 "/>
<path fill-rule="nonzero" fill="rgb(10.198975%, 14.118958%, 18.818665%)" fill-opacity="1" d="M 479.394531 324.644531 C 479.300781 324.710938 476.53125 324.867188 473.191406 324.964844 C 460.429688 325.347656 451.136719 326.269531 450.148438 327.257812 C 449.132812 328.273438 450.277344 328.625 455.847656 329.007812 C 458.742188 329.199219 461.542969 329.484375 462.050781 329.644531 C 462.59375 329.769531 465.296875 329.929688 468.097656 329.929688 C 470.898438 329.929688 475.355469 329.992188 477.964844 330.058594 C 480.605469 330.121094 487.289062 330.28125 492.859375 330.441406 C 499.890625 330.597656 503.488281 330.597656 504.632812 330.34375 C 505.554688 330.152344 507.941406 329.835938 509.945312 329.613281 C 514.976562 329.101562 516.660156 328.308594 515.261719 327.128906 C 514.65625 326.652344 509.914062 325.824219 507.6875 325.824219 C 506.699219 325.824219 505.394531 325.632812 504.824219 325.410156 C 503.644531 324.964844 497.375 324.933594 491.617188 325.347656 C 489.355469 325.503906 488.210938 325.472656 487.703125 325.21875 C 487.035156 324.835938 479.714844 324.328125 479.394531 324.644531 Z M 479.394531 324.644531 "/>
<path fill-rule="nonzero" fill="rgb(10.198975%, 14.118958%, 18.818665%)" fill-opacity="1" d="M 537.15625 324.902344 C 527.738281 325.378906 523.441406 325.761719 521.246094 326.300781 C 518.859375 326.90625 518.03125 327.414062 518.316406 328.148438 C 518.761719 329.359375 534.644531 330.597656 543.679688 330.121094 C 544.984375 330.058594 549.503906 330.152344 553.707031 330.3125 C 561.183594 330.628906 566.210938 330.503906 586.484375 329.613281 C 597.082031 329.132812 600.390625 328.53125 599.054688 327.289062 C 598.480469 326.8125 591.035156 325.761719 586.644531 325.601562 C 565.671875 324.804688 544.761719 324.488281 537.15625 324.902344 Z M 537.15625 324.902344 "/>
<path fill-rule="nonzero" fill="rgb(10.198975%, 14.118958%, 18.818665%)" fill-opacity="1" d="M 503.742188 350.050781 C 500.050781 350.144531 496.898438 350.304688 496.707031 350.429688 C 496.515625 350.527344 494.449219 350.78125 492.09375 351.003906 C 487.191406 351.417969 486.652344 351.609375 486.777344 352.816406 L 486.875 353.679688 L 490.628906 353.867188 C 492.667969 353.996094 494.542969 354.25 494.796875 354.441406 C 495.023438 354.632812 496.644531 354.792969 498.839844 354.761719 C 503.042969 354.761719 510.871094 355.015625 512.492188 355.238281 C 513.097656 355.332031 516.695312 355.269531 520.449219 355.109375 C 525.574219 354.886719 527.546875 354.695312 528.246094 354.347656 C 529.457031 353.710938 531.621094 353.710938 533.59375 354.316406 C 534.800781 354.664062 536.679688 354.726562 542.820312 354.632812 C 547.054688 354.539062 551.542969 354.347656 552.75 354.15625 C 553.992188 353.996094 556.15625 353.867188 557.589844 353.835938 C 559.019531 353.835938 560.386719 353.742188 560.675781 353.644531 C 561.28125 353.421875 561.34375 352.46875 560.769531 351.992188 C 560.164062 351.480469 550.875 350.558594 544.953125 350.429688 C 541.007812 350.335938 539.003906 350.429688 536.839844 350.8125 C 534.800781 351.195312 533.625 351.257812 532.703125 351.066406 C 531.9375 350.875 530.984375 350.875 530.316406 351.066406 C 528.597656 351.511719 522.390625 351.164062 521.179688 350.527344 C 519.972656 349.921875 518.792969 349.824219 515.992188 350.144531 C 514.847656 350.273438 513.128906 350.273438 512.175781 350.113281 C 511.21875 349.984375 507.402344 349.953125 503.742188 350.050781 Z M 503.742188 350.050781 "/>
<path fill-rule="nonzero" fill="rgb(10.198975%, 14.118958%, 18.818665%)" fill-opacity="1" d="M 521.246094 372.011719 C 520.542969 372.171875 518.253906 372.523438 516.152344 372.777344 C 512.460938 373.253906 510.902344 373.796875 510.902344 374.625 C 510.902344 375.453125 511.699219 375.800781 513.511719 375.800781 C 514.53125 375.800781 515.835938 375.992188 516.40625 376.246094 C 518.09375 376.949219 530.664062 377.140625 534.453125 376.535156 C 539.894531 375.640625 540.65625 375.355469 540.277344 374.304688 C 540.179688 374.082031 539.734375 373.796875 539.257812 373.699219 C 538.8125 373.636719 536.996094 373.191406 535.214844 372.746094 C 532.703125 372.140625 531.746094 372.011719 530.726562 372.238281 C 529.867188 372.425781 528.4375 372.394531 526.464844 372.109375 C 523.089844 371.632812 522.996094 371.632812 521.246094 372.011719 Z M 521.246094 372.011719 "/>
<g fill="rgb(10.198975%, 14.118958%, 18.818665%)" fill-opacity="1">
<use xlink:href="#glyph-0-0" x="120.082481" y="506.339979"/>
</g>
<g fill="rgb(10.198975%, 14.118958%, 18.818665%)" fill-opacity="1">
<use xlink:href="#glyph-0-1" x="183.198957" y="506.339979"/>
</g>
<g fill="rgb(10.198975%, 14.118958%, 18.818665%)" fill-opacity="1">
<use xlink:href="#glyph-0-2" x="250.015601" y="506.339979"/>
</g>
<g fill="rgb(10.198975%, 14.118958%, 18.818665%)" fill-opacity="1">
<use xlink:href="#glyph-0-3" x="315.515842" y="506.339979"/>
</g>
<g fill="rgb(10.198975%, 14.118958%, 18.818665%)" fill-opacity="1">
<use xlink:href="#glyph-0-4" x="376.462017" y="506.339979"/>
</g>
<g fill="rgb(10.198975%, 14.118958%, 18.818665%)" fill-opacity="1">
<use xlink:href="#glyph-0-0" x="435.558103" y="506.339979"/>
</g>
<g fill="rgb(10.198975%, 14.118958%, 18.818665%)" fill-opacity="1">
<use xlink:href="#glyph-0-5" x="496.077352" y="506.339979"/>
</g>
<g fill="rgb(10.198975%, 14.118958%, 18.818665%)" fill-opacity="1">
<use xlink:href="#glyph-0-6" x="523.970985" y="506.339979"/>
</g>
<g fill="rgb(10.198975%, 14.118958%, 18.818665%)" fill-opacity="1">
<use xlink:href="#glyph-0-7" x="575.275356" y="506.339979"/>
</g>
<g fill="rgb(10.198975%, 14.118958%, 18.818665%)" fill-opacity="1">
<use xlink:href="#glyph-0-8" x="611.565514" y="506.339979"/>
</g>
<g fill="rgb(10.198975%, 14.118958%, 18.818665%)" fill-opacity="1">
<use xlink:href="#glyph-0-9" x="660.16592" y="506.339979"/>
</g>
<g fill="rgb(10.198975%, 14.118958%, 18.818665%)" fill-opacity="1">
<use xlink:href="#glyph-0-4" x="721.823677" y="506.339979"/>
</g>
<g fill="rgb(10.198975%, 14.118958%, 18.818665%)" fill-opacity="1">
<use xlink:href="#glyph-0-3" x="780.91974" y="506.339979"/>
</g>
<g fill="rgb(10.198975%, 14.118958%, 18.818665%)" fill-opacity="1">
<use xlink:href="#glyph-0-7" x="841.865916" y="506.339979"/>
</g>
<g fill="rgb(10.198975%, 14.118958%, 18.818665%)" fill-opacity="1">
<use xlink:href="#glyph-0-0" x="878.15612" y="506.339979"/>
</g>
<g fill="rgb(10.198975%, 14.118958%, 18.818665%)" fill-opacity="1">
<use xlink:href="#glyph-1-0" x="298.853361" y="571.505035"/>
</g>
<g fill="rgb(10.198975%, 14.118958%, 18.818665%)" fill-opacity="1">
<use xlink:href="#glyph-1-1" x="321.840875" y="571.505035"/>
</g>
<g fill="rgb(10.198975%, 14.118958%, 18.818665%)" fill-opacity="1">
<use xlink:href="#glyph-1-2" x="347.120412" y="571.505035"/>
</g>
<g fill="rgb(10.198975%, 14.118958%, 18.818665%)" fill-opacity="1">
<use xlink:href="#glyph-1-0" x="371.568531" y="571.505035"/>
</g>
<g fill="rgb(10.198975%, 14.118958%, 18.818665%)" fill-opacity="1">
<use xlink:href="#glyph-1-3" x="395.050404" y="571.505035"/>
</g>
<g fill="rgb(10.198975%, 14.118958%, 18.818665%)" fill-opacity="1">
<use xlink:href="#glyph-1-4" x="420.44229" y="571.505035"/>
</g>
<g fill="rgb(10.198975%, 14.118958%, 18.818665%)" fill-opacity="1">
<use xlink:href="#glyph-1-5" x="434.598821" y="571.505035"/>
</g>
<g fill="rgb(10.198975%, 14.118958%, 18.818665%)" fill-opacity="1">
<use xlink:href="#glyph-1-6" x="459.541299" y="571.505035"/>
</g>
<g fill="rgb(10.198975%, 14.118958%, 18.818665%)" fill-opacity="1">
<use xlink:href="#glyph-1-7" x="484.146708" y="571.505035"/>
</g>
<g fill="rgb(10.198975%, 14.118958%, 18.818665%)" fill-opacity="1">
<use xlink:href="#glyph-1-8" x="498.235829" y="571.505035"/>
</g>
<g fill="rgb(10.198975%, 14.118958%, 18.818665%)" fill-opacity="1">
<use xlink:href="#glyph-1-7" x="521.560413" y="571.505035"/>
</g>
<g fill="rgb(10.198975%, 14.118958%, 18.818665%)" fill-opacity="1">
<use xlink:href="#glyph-1-0" x="535.649523" y="571.505035"/>
</g>
<g fill="rgb(10.198975%, 14.118958%, 18.818665%)" fill-opacity="1">
<use xlink:href="#glyph-1-1" x="558.63706" y="571.505035"/>
</g>
<g fill="rgb(10.198975%, 14.118958%, 18.818665%)" fill-opacity="1">
<use xlink:href="#glyph-1-5" x="584.231185" y="571.505035"/>
</g>
<g fill="rgb(10.198975%, 14.118958%, 18.818665%)" fill-opacity="1">
<use xlink:href="#glyph-1-9" x="609.173663" y="571.505035"/>
</g>
<g fill="rgb(10.198975%, 14.118958%, 18.818665%)" fill-opacity="1">
<use xlink:href="#glyph-1-10" x="631.487061" y="571.505035"/>
</g>
<g fill="rgb(10.198975%, 14.118958%, 18.818665%)" fill-opacity="1">
<use xlink:href="#glyph-1-11" x="656.092469" y="571.505035"/>
</g>
<g fill="rgb(10.198975%, 14.118958%, 18.818665%)" fill-opacity="1">
<use xlink:href="#glyph-1-12" x="673.687027" y="571.505035"/>
</g>
<g fill="rgb(10.198975%, 14.118958%, 18.818665%)" fill-opacity="1">
<use xlink:href="#glyph-1-4" x="695.506043" y="571.505035"/>
</g>
<g fill="rgb(10.198975%, 14.118958%, 18.818665%)" fill-opacity="1">
<use xlink:href="#glyph-1-5" x="709.662562" y="571.505035"/>
</g>
<g fill="rgb(10.198975%, 14.118958%, 18.818665%)" fill-opacity="1">
<use xlink:href="#glyph-1-6" x="734.605086" y="571.505035"/>
</g>
</svg>
